<svg width="120" height="34" viewBox="0 0 120 34" fill="none" xmlns="http://www.w3.org/2000/svg">
<path d="M118.387 29.2551C118.387 31.0174 116.871 32.4449 114.997 32.4449H4.05562C2.18198 32.4449 0.661133 31.0174 0.661133 29.2551V3.81772C0.661133 2.05626 2.18198 0.623779 4.05562 0.623779H114.996C116.871 0.623779 118.386 2.05626 118.386 3.81772L118.387 29.2551Z" fill="#10161E"/>
<path d="M114.639 0.662487C116.681 0.662487 118.342 2.21983 118.342 4.1337V28.9355C118.342 30.8493 116.681 32.4067 114.639 32.4067H4.4092C2.36774 32.4067 0.706574 30.8493 0.706574 28.9355V4.1337C0.706574 2.21983 2.36774 0.662487 4.4092 0.662487H114.639ZM114.639 7.62939e-05H4.4092C1.98524 7.62939e-05 0 1.86124 0 4.1337V28.9355C0 31.2079 1.98524 33.0691 4.4092 33.0691H114.639C117.063 33.0691 119.048 31.2079 119.048 28.9355V4.1337C119.048 1.86124 117.063 7.62939e-05 114.639 7.62939e-05Z" fill="#A6A6A6"/>
<path d="M26.5679 16.3558C26.5424 13.6913 28.8951 12.395 29.0027 12.3346C27.6702 10.5134 25.605 10.2645 24.8792 10.2447C23.1446 10.0735 21.4621 11.2177 20.5785 11.2177C19.6772 11.2177 18.3166 10.2612 16.8501 10.2893C14.9629 10.3166 13.1975 11.3409 12.2292 12.9315C10.231 16.1748 11.7213 20.9408 13.6358 23.5624C14.5934 24.8463 15.7125 26.2798 17.1772 26.2294C18.6102 26.174 19.1455 25.3729 20.8748 25.3729C22.5882 25.3729 23.0908 26.2294 24.5847 26.1972C26.1226 26.174 27.0909 24.9075 28.015 23.612C29.1218 22.1404 29.5662 20.6912 29.5838 20.6168C29.5477 20.6052 26.597 19.5495 26.5679 16.3558Z" fill="white"/>
<path d="M23.7461 8.52013C24.5168 7.61652 25.0441 6.38718 24.8977 5.13965C23.7822 5.18595 22.3871 5.86303 21.5838 6.7468C20.873 7.52558 20.2381 8.80204 20.4021 10.0024C21.6552 10.0901 22.9418 9.40969 23.7461 8.52013Z" fill="white"/>
<path d="M43.2546 8.2746C43.2546 9.24766 42.9433 9.98013 42.3217 10.472C41.7458 10.9259 40.9275 11.1533 39.8675 11.1533C39.3419 11.1533 38.8922 11.1318 38.5156 11.0888V5.7721C39.0068 5.6977 39.5359 5.65967 40.1073 5.65967C41.1171 5.65967 41.8781 5.86552 42.3913 6.27723C42.9663 6.74268 43.2546 7.40819 43.2546 8.2746ZM42.2802 8.29858C42.2802 7.66778 42.1021 7.18415 41.7458 6.84685C41.3895 6.51037 40.8693 6.34172 40.1841 6.34172C39.8931 6.34172 39.6453 6.3599 39.4398 6.39793V10.4398C39.5536 10.4563 39.7617 10.4638 40.0641 10.4638C40.7714 10.4638 41.3172 10.2794 41.7017 9.91069C42.0862 9.54197 42.2802 9.0046 42.2802 8.29858Z" fill="white"/>
<path d="M48.4211 9.12438C48.4211 9.72375 48.2385 10.2148 47.8734 10.6001C47.4907 10.9961 46.9837 11.1937 46.3505 11.1937C45.7403 11.1937 45.2544 11.0044 44.8919 10.6241C44.5304 10.2446 44.3496 9.76592 44.3496 9.18886C44.3496 8.58535 44.5357 8.09014 44.9096 7.70572C45.2835 7.32129 45.7861 7.12866 46.4193 7.12866C47.0295 7.12866 47.5198 7.31798 47.8911 7.69745C48.2438 8.06617 48.4211 8.54236 48.4211 9.12438ZM47.4625 9.15249C47.4625 8.79286 47.3796 8.48449 47.2147 8.22738C47.0207 7.91653 46.7447 7.76111 46.3858 7.76111C46.0145 7.76111 45.7323 7.91653 45.5383 8.22738C45.3725 8.48449 45.2905 8.79782 45.2905 9.16819C45.2905 9.52782 45.3734 9.83619 45.5383 10.0933C45.7385 10.4041 46.0172 10.5596 46.377 10.5596C46.7297 10.5596 47.0066 10.4017 47.2059 10.085C47.377 9.82296 47.4625 9.51211 47.4625 9.15249Z" fill="white"/>
<path d="M55.3491 7.20825L54.0484 11.1054H53.2019L52.6631 9.41313C52.5264 8.99067 52.4153 8.5707 52.3288 8.15403H52.3121C52.2318 8.58227 52.1207 9.00142 51.9779 9.41313L51.4055 11.1054H50.5493L49.3262 7.20825H50.2759L50.7459 9.06094C50.8597 9.49911 50.9532 9.9166 51.0281 10.3118H51.0449C51.1137 9.98605 51.2274 9.57103 51.3879 9.06921L51.9779 7.20908H52.731L53.2962 9.02953C53.4329 9.47348 53.544 9.9009 53.6295 10.3126H53.6551C53.7177 9.91164 53.8121 9.48423 53.9373 9.02953L54.4417 7.20908H55.3491V7.20825Z" fill="white"/>
<path d="M60.1398 11.1053H59.2157V8.87309C59.2157 8.18526 58.937 7.84134 58.3779 7.84134C58.1037 7.84134 57.8823 7.93559 57.7104 8.12491C57.5402 8.31423 57.4538 8.53744 57.4538 8.7929V11.1044H56.5296V8.32167C56.5296 7.9794 56.5181 7.6082 56.4961 7.20641H57.3083L57.3515 7.81571H57.3771C57.4846 7.62639 57.6451 7.47014 57.8559 7.3453C58.1063 7.1998 58.3868 7.12622 58.6936 7.12622C59.0816 7.12622 59.4044 7.24362 59.661 7.47923C59.9802 7.76776 60.1398 8.19848 60.1398 8.77058V11.1053Z" fill="white"/>
<path d="M62.6879 11.1053H61.7646V5.41992H62.6879V11.1053Z" fill="white"/>
<path d="M68.1291 9.12438C68.1291 9.72375 67.9465 10.2148 67.5815 10.6001C67.1987 10.9961 66.6908 11.1937 66.0585 11.1937C65.4474 11.1937 64.9615 11.0044 64.5999 10.6241C64.2384 10.2446 64.0576 9.76592 64.0576 9.18886C64.0576 8.58535 64.2437 8.09014 64.6176 7.70572C64.9915 7.32129 65.4941 7.12866 66.1264 7.12866C66.7375 7.12866 67.227 7.31798 67.5991 7.69745C67.9518 8.06617 68.1291 8.54236 68.1291 9.12438ZM67.1696 9.15249C67.1696 8.79286 67.0867 8.48449 66.9218 8.22738C66.7287 7.91653 66.4518 7.76111 66.0938 7.76111C65.7216 7.76111 65.4395 7.91653 65.2463 8.22738C65.0806 8.48449 64.9985 8.79782 64.9985 9.16819C64.9985 9.52782 65.0814 9.83619 65.2463 10.0933C65.4465 10.4041 65.7252 10.5596 66.085 10.5596C66.4377 10.5596 66.7137 10.4017 66.913 10.085C67.085 9.82296 67.1696 9.51211 67.1696 9.15249Z" fill="white"/>
<path d="M72.6022 11.1052H71.7724L71.7036 10.6563H71.678C71.394 11.0143 70.9893 11.1937 70.4637 11.1937C70.0713 11.1937 69.7538 11.0754 69.5149 10.8407C69.2979 10.6274 69.1895 10.362 69.1895 10.047C69.1895 9.57081 69.4011 9.20788 69.827 8.95655C70.2521 8.70523 70.85 8.58204 71.6198 8.58783V8.51508C71.6198 8.00168 71.3323 7.7454 70.7565 7.7454C70.3464 7.7454 69.9849 7.84213 69.6727 8.03393L69.4849 7.46514C69.8711 7.2411 70.3482 7.12866 70.9108 7.12866C71.9972 7.12866 72.5422 7.66603 72.5422 8.74078V10.176C72.5422 10.5654 72.5625 10.8754 72.6022 11.1052ZM71.6427 9.76592V9.16489C70.6233 9.14835 70.1136 9.41042 70.1136 9.95028C70.1136 10.1537 70.1718 10.3058 70.2909 10.4075C70.4099 10.5091 70.5616 10.5596 70.7424 10.5596C70.9452 10.5596 71.1348 10.4992 71.3076 10.3793C71.4813 10.2586 71.5881 10.1057 71.6277 9.91803C71.6374 9.87587 71.6427 9.82461 71.6427 9.76592Z" fill="white"/>
<path d="M77.853 11.1053H77.0329L76.9897 10.4795H76.9641C76.7022 10.9557 76.256 11.1938 75.629 11.1938C75.1282 11.1938 74.711 11.0094 74.3804 10.6407C74.0497 10.272 73.8848 9.7933 73.8848 9.2055C73.8848 8.57471 74.0638 8.06379 74.4236 7.67357C74.7719 7.30982 75.1987 7.12794 75.7066 7.12794C76.2648 7.12794 76.6555 7.30403 76.8777 7.65704H76.8954V5.41992H77.8204V10.0554C77.8204 10.4348 77.831 10.7845 77.853 11.1053ZM76.8954 9.46178V8.81198C76.8954 8.69954 76.8865 8.6086 76.8698 8.53916C76.8178 8.33082 76.7058 8.15556 76.5356 8.01419C76.3636 7.87282 76.1564 7.80172 75.9174 7.80172C75.5726 7.80172 75.3028 7.92986 75.1043 8.18697C74.9077 8.44408 74.808 8.77229 74.808 9.17325C74.808 9.55851 74.9024 9.87101 75.092 10.1116C75.2922 10.3679 75.562 10.496 75.8998 10.496C76.2031 10.496 76.4456 10.3894 76.6299 10.1752C76.8081 9.97766 76.8954 9.73956 76.8954 9.46178Z" fill="white"/>
<path d="M85.757 9.12438C85.757 9.72375 85.5745 10.2148 85.2094 10.6001C84.8267 10.9961 84.3205 11.1937 83.6864 11.1937C83.0771 11.1937 82.5912 11.0044 82.2279 10.6241C81.8663 10.2446 81.6855 9.76592 81.6855 9.18886C81.6855 8.58535 81.8716 8.09014 82.2455 7.70572C82.6194 7.32129 83.1221 7.12866 83.7561 7.12866C84.3655 7.12866 84.8566 7.31798 85.227 7.69745C85.5798 8.06617 85.757 8.54236 85.757 9.12438ZM84.7993 9.15249C84.7993 8.79286 84.7164 8.48449 84.5515 8.22738C84.3566 7.91653 84.0815 7.76111 83.7217 7.76111C83.3513 7.76111 83.0692 7.91653 82.8743 8.22738C82.7085 8.48449 82.6265 8.79782 82.6265 9.16819C82.6265 9.52782 82.7094 9.83619 82.8743 10.0933C83.0744 10.4041 83.3531 10.5596 83.7129 10.5596C84.0656 10.5596 84.3434 10.4017 84.5427 10.085C84.7129 9.82296 84.7993 9.51211 84.7993 9.15249Z" fill="white"/>
<path d="M90.7259 11.1053H89.8026V8.87309C89.8026 8.18526 89.5239 7.84134 88.964 7.84134C88.6897 7.84134 88.4684 7.93559 88.2973 8.12491C88.1262 8.31423 88.0407 8.53744 88.0407 8.7929V11.1044H87.1156V8.32167C87.1156 7.9794 87.1051 7.6082 87.083 7.20641H87.8943L87.9375 7.81571H87.9631C88.0715 7.62639 88.232 7.47014 88.4419 7.3453C88.6932 7.1998 88.9728 7.12622 89.2806 7.12622C89.6677 7.12622 89.9904 7.24362 90.247 7.47923C90.5671 7.76776 90.7259 8.19848 90.7259 8.77058V11.1053Z" fill="white"/>
<path d="M96.9458 7.8571H95.9282V9.7503C95.9282 10.2315 96.109 10.472 96.467 10.472C96.6328 10.472 96.7703 10.4588 96.8788 10.4315L96.9026 11.0888C96.7201 11.1533 96.4802 11.1855 96.1848 11.1855C95.8197 11.1855 95.5358 11.0813 95.3303 10.873C95.1239 10.6647 95.0216 10.3141 95.0216 9.82223V7.8571H94.4141V7.20812H95.0216V6.49383L95.9273 6.23755V7.2073H96.9449V7.8571H96.9458Z" fill="white"/>
<path d="M101.839 11.1053H100.914V8.88969C100.914 8.19111 100.635 7.8414 100.077 7.8414C99.6483 7.8414 99.3555 8.04395 99.195 8.44904C99.1677 8.5342 99.1518 8.63836 99.1518 8.76072V11.1045H98.2285V5.41992H99.1518V7.76865H99.1694C99.4605 7.34123 99.8776 7.12794 100.418 7.12794C100.801 7.12794 101.117 7.24533 101.369 7.48095C101.682 7.77444 101.839 8.21095 101.839 8.788V11.1053Z" fill="white"/>
<path d="M106.885 8.97238C106.885 9.1278 106.873 9.25842 106.851 9.36507H104.079C104.092 9.75032 104.224 10.0438 104.48 10.2472C104.715 10.4291 105.018 10.52 105.388 10.52C105.798 10.52 106.172 10.4588 106.509 10.3356L106.653 10.9375C106.259 11.0979 105.795 11.1781 105.258 11.1781C104.615 11.1781 104.107 11.0003 103.741 10.6448C103.372 10.2893 103.189 9.81233 103.189 9.21378C103.189 8.62598 103.36 8.13656 103.703 7.74634C104.061 7.32967 104.545 7.12134 105.156 7.12134C105.754 7.12134 106.208 7.32967 106.515 7.74634C106.763 8.07703 106.885 8.48626 106.885 8.97238ZM106.003 8.74833C106.01 8.49122 105.95 8.26966 105.824 8.08282C105.664 7.84224 105.42 7.72154 105.089 7.72154C104.787 7.72154 104.541 7.83894 104.353 8.07455C104.2 8.26222 104.109 8.48626 104.079 8.74833H106.003Z" fill="white"/>
<path d="M47.3059 26.0453H45.3033L44.2062 22.8136H40.3932L39.3482 26.0453H37.3984L41.1762 15.0432H43.5096L47.3059 26.0453ZM43.8756 21.4578L42.8835 18.5849C42.7785 18.2914 42.5819 17.6003 42.2918 16.5123H42.2565C42.141 16.9802 41.9549 17.6714 41.6992 18.5849L40.7247 21.4578H43.8756Z" fill="white"/>
<path d="M57.0212 21.9809C57.0212 23.3301 56.6323 24.3966 55.8545 25.1795C55.1578 25.8764 54.2927 26.2245 53.2601 26.2245C52.1455 26.2245 51.3448 25.8492 50.8571 25.0985H50.8218V29.2776H48.9417V20.7235C48.9417 19.8752 48.9179 19.0047 48.8721 18.1118H50.5255L50.6305 19.3693H50.6657C51.2927 18.4219 52.2442 17.949 53.5211 17.949C54.5194 17.949 55.3527 18.3185 56.0194 19.0584C56.6878 19.7992 57.0212 20.7731 57.0212 21.9809ZM55.1058 22.0454C55.1058 21.2732 54.9206 20.6367 54.5485 20.1357C54.142 19.6132 53.5961 19.3519 52.9118 19.3519C52.4479 19.3519 52.0264 19.4974 51.6499 19.7843C51.2724 20.0737 51.0255 20.4515 50.91 20.9194C50.8518 21.1377 50.8227 21.3162 50.8227 21.4568V22.7795C50.8227 23.3566 51.0114 23.8435 51.3888 24.2412C51.7663 24.6388 52.2566 24.8372 52.8598 24.8372C53.5679 24.8372 54.119 24.581 54.5132 24.07C54.9083 23.5583 55.1058 22.8837 55.1058 22.0454Z" fill="white"/>
<path d="M66.7537 21.9809C66.7537 23.3301 66.3648 24.3966 65.5861 25.1795C64.8903 25.8764 64.0253 26.2245 62.9926 26.2245C61.878 26.2245 61.0773 25.8492 60.5905 25.0985H60.5552V29.2776H58.6751V20.7235C58.6751 19.8752 58.6513 19.0047 58.6055 18.1118H60.2589L60.3639 19.3693H60.3991C61.0252 18.4219 61.9767 17.949 63.2545 17.949C64.2519 17.949 65.0852 18.3185 65.7537 19.0584C66.4195 19.7992 66.7537 20.7731 66.7537 21.9809ZM64.8383 22.0454C64.8383 21.2732 64.6522 20.6367 64.2801 20.1357C63.8736 19.6132 63.3295 19.3519 62.6443 19.3519C62.1796 19.3519 61.7589 19.4974 61.3815 19.7843C61.0041 20.0737 60.758 20.4515 60.6425 20.9194C60.5852 21.1377 60.5552 21.3162 60.5552 21.4568V22.7795C60.5552 23.3566 60.7439 23.8435 61.1196 24.2412C61.497 24.638 61.9873 24.8372 62.5923 24.8372C63.3004 24.8372 63.8515 24.581 64.2457 24.07C64.6408 23.5583 64.8383 22.8837 64.8383 22.0454Z" fill="white"/>
<path d="M77.6359 22.9598C77.6359 23.8956 77.2894 24.657 76.5936 25.2448C75.8291 25.8872 74.7647 26.208 73.3969 26.208C72.1341 26.208 71.1218 25.9798 70.3555 25.5226L70.7911 24.0535C71.6165 24.5215 72.5222 24.7562 73.5089 24.7562C74.2171 24.7562 74.7682 24.6058 75.1641 24.3065C75.5583 24.0072 75.755 23.6054 75.755 23.1044C75.755 22.658 75.5927 22.2819 75.2673 21.9768C74.9437 21.6717 74.4031 21.3882 73.6483 21.1261C71.5936 20.4077 70.5671 19.3552 70.5671 17.9713C70.5671 17.0669 70.9269 16.3253 71.6474 15.7482C72.3652 15.1704 73.3229 14.8818 74.5204 14.8818C75.5883 14.8818 76.4754 15.0563 77.1836 15.4043L76.7135 16.8412C76.0522 16.5039 75.3044 16.3352 74.4675 16.3352C73.8061 16.3352 73.2894 16.4882 72.919 16.7924C72.6059 17.0644 72.449 17.3959 72.449 17.7886C72.449 18.2235 72.628 18.5831 72.9878 18.8658C73.3008 19.1271 73.8696 19.4098 74.695 19.7149C75.7047 20.096 76.4463 20.5416 76.9234 21.0525C77.3987 21.5618 77.6359 22.1992 77.6359 22.9598Z" fill="white"/>
<path d="M83.8517 19.4345H81.7794V23.2862C81.7794 24.2659 82.1445 24.7553 82.8764 24.7553C83.2124 24.7553 83.491 24.728 83.7115 24.6734L83.7635 26.0119C83.3932 26.1417 82.9055 26.207 82.3014 26.207C81.5589 26.207 80.9787 25.9945 80.5598 25.5704C80.1427 25.1455 79.9328 24.4329 79.9328 23.4317V19.4328H78.6982V18.1101H79.9328V16.6575L81.7794 16.135V18.1101H83.8517V19.4345Z" fill="white"/>
<path d="M93.2025 22.0131C93.2025 23.2325 92.8303 24.2336 92.0878 25.0166C91.3092 25.8226 90.2757 26.2244 88.9873 26.2244C87.7457 26.2244 86.7571 25.8383 86.0199 25.0662C85.2827 24.294 84.9141 23.3193 84.9141 22.1445C84.9141 20.9152 85.2933 19.9082 86.0543 19.1253C86.8135 18.3416 87.8382 17.9497 89.1266 17.9497C90.3682 17.9497 91.3674 18.3358 92.1213 19.1088C92.8427 19.8586 93.2025 20.8267 93.2025 22.0131ZM91.2518 22.0701C91.2518 21.3385 91.0852 20.711 90.7474 20.1877C90.3532 19.5544 89.7898 19.2386 89.0596 19.2386C88.3039 19.2386 87.7298 19.5552 87.3356 20.1877C86.9979 20.7118 86.8312 21.3492 86.8312 22.1032C86.8312 22.8348 86.9979 23.4623 87.3356 23.9848C87.7421 24.6181 88.31 24.9339 89.0428 24.9339C89.7607 24.9339 90.3242 24.6115 90.7307 23.9683C91.0772 23.435 91.2518 22.8009 91.2518 22.0701Z" fill="white"/>
<path d="M99.3135 19.662C99.1274 19.6297 98.929 19.6132 98.7209 19.6132C98.0595 19.6132 97.5481 19.8471 97.1883 20.3159C96.8752 20.7293 96.7183 21.2517 96.7183 21.8825V26.0451H94.839L94.8567 20.6102C94.8567 19.6958 94.8329 18.8633 94.7861 18.1127H96.4237L96.4925 19.6305H96.5445C96.7429 19.1089 97.056 18.6889 97.4846 18.3739C97.9034 18.0903 98.3558 17.949 98.8435 17.949C99.0172 17.949 99.1742 17.9605 99.3135 17.9812V19.662Z" fill="white"/>
<path d="M107.721 21.7031C107.721 22.0189 107.699 22.2851 107.653 22.5026H102.012C102.035 23.2863 102.307 23.8857 102.831 24.299C103.306 24.6686 103.921 24.8538 104.676 24.8538C105.511 24.8538 106.273 24.7289 106.958 24.4784L107.252 25.702C106.452 26.0294 105.506 26.1922 104.415 26.1922C103.103 26.1922 102.073 25.8301 101.324 25.1068C100.576 24.3834 100.201 23.412 100.201 22.1934C100.201 20.9971 100.55 20.0009 101.247 19.2064C101.977 18.3582 102.964 17.9341 104.206 17.9341C105.425 17.9341 106.348 18.3582 106.975 19.2064C107.472 19.8802 107.721 20.7135 107.721 21.7031ZM105.929 21.2459C105.941 20.7235 105.818 20.2721 105.564 19.8909C105.238 19.4007 104.738 19.156 104.065 19.156C103.451 19.156 102.951 19.3949 102.569 19.8744C102.256 20.2555 102.07 20.7127 102.012 21.2451H105.929V21.2459Z" fill="white"/>
</svg>
