<svg width="17" height="17" viewBox="0 0 17 17" fill="none" xmlns="http://www.w3.org/2000/svg">
<g clip-path="url(#clip0_173_3831)">
<path d="M16.7494 8.67741C16.7494 4.11153 13.048 0.410156 8.4821 0.410156C3.91622 0.410156 0.214844 4.11153 0.214844 8.67741C0.214844 12.8038 3.23804 16.224 7.19034 16.8442V11.0672H5.09123V8.67741H7.19034V6.85603C7.19034 4.78405 8.42461 3.63955 10.313 3.63955C11.2172 3.63955 12.1636 3.80102 12.1636 3.80102V5.83554H11.1212C10.0942 5.83554 9.77386 6.47286 9.77386 7.1273V8.67741H12.0667L11.7002 11.0672H9.77386V16.8442C13.7262 16.224 16.7494 12.8038 16.7494 8.67741Z" fill="white"/>
</g>
<defs>
<clipPath id="clip0_173_3831">
<rect width="16.5345" height="16.5345" fill="white" transform="translate(0.214844 0.410156)"/>
</clipPath>
</defs>
</svg>
