<svg width="120" height="34" viewBox="0 0 120 34" fill="none" xmlns="http://www.w3.org/2000/svg">
<path d="M115.435 34H4.43982C1.99903 34 0 32.0864 0 29.75V4.25019C0 1.91376 1.99903 0.000212022 4.43982 0.000212022H115.435C117.876 0.000212022 119.875 1.91376 119.875 4.25019V29.75C119.875 32.0864 117.876 34 115.435 34Z" fill="#10161E"/>
<path d="M115.435 0.681269C117.491 0.681269 119.164 2.28245 119.164 4.25019V29.75C119.164 31.7178 117.491 33.3189 115.435 33.3189H4.43982C2.38418 33.3189 0.711481 31.7178 0.711481 29.75V4.25019C0.711481 2.28245 2.38418 0.681269 4.43982 0.681269H115.435ZM115.435 0.000212022H4.43982C1.99903 0.000212022 0 1.91376 0 4.25019V29.75C0 32.0864 1.99903 34 4.43982 34H115.435C117.876 34 119.875 32.0864 119.875 29.75V4.25019C119.875 1.91376 117.876 0.000212022 115.435 0.000212022Z" fill="#A6A6A6"/>
<path d="M9.26628 6.40819C9.00545 6.66956 8.85449 7.0765 8.85449 7.60349V26.4011C8.85449 26.9281 9.00545 27.3351 9.26628 27.5964L9.33066 27.6538L20.3348 17.1245V16.8759L9.33066 6.34656L9.26628 6.40819Z" fill="url(#paint0_linear_195_1361)"/>
<path d="M23.9989 20.6365L20.335 17.1249V16.8763L24.0034 13.3648L24.0855 13.4105L28.4299 15.7766C29.6697 16.4481 29.6697 17.5531 28.4299 18.2289L24.0855 20.5908L23.9989 20.6365Z" fill="url(#paint1_linear_195_1361)"/>
<path d="M24.0846 20.5909L20.3341 17.0007L9.26562 27.597C9.67742 28.0113 10.3489 28.0613 11.1126 27.6469L24.0846 20.5909Z" fill="url(#paint2_linear_195_1361)"/>
<path d="M24.0846 13.4106L11.1126 6.35455C10.3489 5.94443 9.67742 5.99436 9.26562 6.40874L20.3341 17.0007L24.0846 13.4106Z" fill="url(#paint3_linear_195_1361)"/>
<path d="M42.1043 8.70786C42.1043 9.4176 41.8823 9.98604 41.4449 10.41C40.9421 10.9125 40.2873 11.1654 39.4848 11.1654C38.7178 11.1654 38.0629 10.9083 37.5257 10.4015C36.9874 9.88722 36.7188 9.2561 36.7188 8.50067C36.7188 7.74524 36.9874 7.11412 37.5257 6.60412C38.0629 6.09306 38.7178 5.83594 39.4848 5.83594C39.8666 5.83594 40.2306 5.91137 40.5781 6.05162C40.9244 6.19294 41.2063 6.38418 41.4105 6.62006L40.9466 7.06843C40.5903 6.66575 40.1052 6.46706 39.4848 6.46706C38.9253 6.46706 38.4403 6.65406 38.0285 7.03124C37.6211 7.40949 37.4169 7.8993 37.4169 8.50067C37.4169 9.10204 37.6211 9.5961 38.0285 9.97435C38.4403 10.3473 38.9253 10.5385 39.4848 10.5385C40.0786 10.5385 40.5781 10.3473 40.9721 9.9701C41.2318 9.72041 41.3795 9.37616 41.4183 8.93629H39.4848V8.32217H42.0643C42.0954 8.45498 42.1043 8.58354 42.1043 8.70786Z" fill="white" stroke="white" stroke-width="0.132276" stroke-miterlimit="10"/>
<path d="M46.1969 6.57893H43.7738V8.19392H45.9582V8.80804H43.7738V10.423H46.1969V11.0488H43.0879V5.95312H46.1969V6.57893Z" fill="white" stroke="white" stroke-width="0.132276" stroke-miterlimit="10"/>
<path d="M49.0853 11.0488H48.3993V6.57893H46.9131V5.95312H50.5726V6.57893H49.0853V11.0488Z" fill="white" stroke="white" stroke-width="0.132276" stroke-miterlimit="10"/>
<path d="M53.2207 11.0488V5.95312H53.9055V11.0488H53.2207Z" fill="white" stroke="white" stroke-width="0.132276" stroke-miterlimit="10"/>
<path d="M56.9407 11.0488H56.2603V6.57893H54.7686V5.95312H58.4325V6.57893H56.9407V11.0488Z" fill="white" stroke="white" stroke-width="0.132276" stroke-miterlimit="10"/>
<path d="M65.3617 10.393C64.8367 10.9083 64.1863 11.1654 63.4104 11.1654C62.6301 11.1654 61.9797 10.9083 61.4547 10.393C60.9308 9.87872 60.6699 9.2476 60.6699 8.50067C60.6699 7.75374 60.9308 7.12262 61.4547 6.60837C61.9797 6.09306 62.6301 5.83594 63.4104 5.83594C64.1818 5.83594 64.8323 6.09306 65.3573 6.61262C65.8856 7.13112 66.1464 7.75799 66.1464 8.50067C66.1464 9.2476 65.8856 9.87872 65.3617 10.393ZM61.9619 9.96585C62.3571 10.3473 62.8377 10.5385 63.4104 10.5385C63.9787 10.5385 64.4638 10.3473 64.8545 9.96585C65.2485 9.58441 65.4483 9.0946 65.4483 8.50067C65.4483 7.90674 65.2485 7.41693 64.8545 7.03549C64.4638 6.65406 63.9787 6.46281 63.4104 6.46281C62.8377 6.46281 62.3571 6.65406 61.9619 7.03549C61.5679 7.41693 61.3681 7.90674 61.3681 8.50067C61.3681 9.0946 61.5679 9.58441 61.9619 9.96585Z" fill="white" stroke="white" stroke-width="0.132276" stroke-miterlimit="10"/>
<path d="M67.1084 11.0488V5.95312H67.9409L70.5293 9.91622H70.5593L70.5293 8.93661V5.95312H71.2141V11.0488H70.4993L67.7888 6.89024H67.7588L67.7888 7.87411V11.0488H67.1084Z" fill="white" stroke="white" stroke-width="0.132276" stroke-miterlimit="10"/>
<path d="M60.5008 18.4901C58.4152 18.4901 56.7114 20.0095 56.7114 22.1058C56.7114 24.1851 58.4152 25.7204 60.5008 25.7204C62.5908 25.7204 64.2946 24.1851 64.2946 22.1058C64.2946 20.0095 62.5908 18.4901 60.5008 18.4901ZM60.5008 24.2967C59.3564 24.2967 58.3719 23.3925 58.3719 22.1058C58.3719 20.8021 59.3564 19.9139 60.5008 19.9139C61.6452 19.9139 62.6341 20.8021 62.6341 22.1058C62.6341 23.3925 61.6452 24.2967 60.5008 24.2967ZM52.2327 18.4901C50.1427 18.4901 48.4433 20.0095 48.4433 22.1058C48.4433 24.1851 50.1427 25.7204 52.2327 25.7204C54.3217 25.7204 56.0221 24.1851 56.0221 22.1058C56.0221 20.0095 54.3217 18.4901 52.2327 18.4901ZM52.2327 24.2967C51.0873 24.2967 50.0994 23.3925 50.0994 22.1058C50.0994 20.8021 51.0873 19.9139 52.2327 19.9139C53.3771 19.9139 54.3616 20.8021 54.3616 22.1058C54.3616 23.3925 53.3771 24.2967 52.2327 24.2967ZM42.3941 19.5983V21.1347H46.2268C46.1147 21.9932 45.815 22.6243 45.3555 23.0642C44.796 23.5954 43.9247 24.1851 42.3941 24.1851C40.0354 24.1851 38.1885 22.3629 38.1885 20.1051C38.1885 17.8473 40.0354 16.0251 42.3941 16.0251C43.6694 16.0251 44.5974 16.5022 45.2822 17.1206L46.4132 16.0379C45.4554 15.1624 44.1811 14.4898 42.3941 14.4898C39.1597 14.4898 36.4414 17.009 36.4414 20.1051C36.4414 23.2012 39.1597 25.7204 42.3941 25.7204C44.1423 25.7204 45.4553 25.1721 46.4876 24.1437C47.5454 23.1311 47.8751 21.7074 47.8751 20.5577C47.8751 20.2007 47.844 19.8724 47.7885 19.5983H42.3941ZM82.6255 20.7894C82.3136 19.9808 81.3513 18.4901 79.3911 18.4901C77.4487 18.4901 75.8315 19.9553 75.8315 22.1058C75.8315 24.1309 77.432 25.7204 79.5776 25.7204C81.3124 25.7204 82.3136 24.7078 82.7254 24.1182L81.4379 23.2968C81.0083 23.8982 80.4234 24.2967 79.5776 24.2967C78.7373 24.2967 78.1346 23.928 77.7484 23.2012L82.7998 21.2005L82.6255 20.7894ZM77.4753 21.9932C77.432 20.5992 78.6064 19.8852 79.4477 19.8852C80.107 19.8852 80.6665 20.2007 80.8529 20.6523L77.4753 21.9932ZM73.3696 25.5005H75.0301V14.8755H73.3696V25.5005ZM70.6502 19.2955H70.5947C70.2218 18.8726 69.5103 18.4901 68.609 18.4901C66.7177 18.4901 64.9883 20.0796 64.9883 22.1175C64.9883 24.1437 66.7177 25.7204 68.609 25.7204C69.5103 25.7204 70.2218 25.3347 70.5947 24.8991H70.6502V25.4176C70.6502 26.7999 69.8788 27.5426 68.6345 27.5426C67.62 27.5426 66.9907 26.8413 66.731 26.2516L65.2869 26.8286C65.7031 27.7869 66.8053 28.9663 68.6345 28.9663C70.5814 28.9663 72.2241 27.8698 72.2241 25.2019V18.7101H70.6502V19.2955ZM68.7511 24.2967C67.6067 24.2967 66.6488 23.3797 66.6488 22.1175C66.6488 20.8435 67.6067 19.9139 68.7511 19.9139C69.8788 19.9139 70.7679 20.8435 70.7679 22.1175C70.7679 23.3797 69.8788 24.2967 68.7511 24.2967ZM90.3996 14.8755H86.4282V25.5005H88.0843V21.4747H90.3996C92.2388 21.4747 94.0425 20.2007 94.0425 18.1746C94.0425 16.1495 92.2344 14.8755 90.3996 14.8755ZM90.4429 19.9967H88.0843V16.3535H90.4429C91.6794 16.3535 92.3854 17.3363 92.3854 18.1746C92.3854 18.9969 91.6794 19.9967 90.4429 19.9967ZM100.68 18.4699C99.4835 18.4699 98.2393 18.9757 97.7276 20.0966L99.1972 20.6863C99.5135 20.0966 100.095 19.9054 100.71 19.9054C101.569 19.9054 102.44 20.3994 102.454 21.2717V21.3833C102.154 21.2175 101.513 20.9721 100.723 20.9721C99.1405 20.9721 97.5278 21.8062 97.5278 23.3627C97.5278 24.7865 98.8242 25.7034 100.282 25.7034C101.396 25.7034 102.011 25.2221 102.397 24.6621H102.454V25.4835H104.053V21.4077C104.053 19.5239 102.584 18.4699 100.68 18.4699ZM100.48 24.2924C99.9386 24.2924 99.1838 24.0353 99.1838 23.3925C99.1838 22.5701 100.125 22.2545 100.94 22.2545C101.669 22.2545 102.011 22.4086 102.454 22.6115C102.324 23.5954 101.439 24.2924 100.48 24.2924ZM109.88 18.7026L107.977 23.3085H107.92L105.952 18.7026H104.166L107.123 25.1392L105.436 28.7209H107.167L111.723 18.7026H109.88ZM94.9527 25.5005H96.6132V14.8755H94.9527V25.5005Z" fill="white"/>
<defs>
<linearGradient id="paint0_linear_195_1361" x1="19.3577" y1="26.5969" x2="5.10638" y2="11.7089" gradientUnits="userSpaceOnUse">
<stop stop-color="#00A0FF"/>
<stop offset="0.0066" stop-color="#00A1FF"/>
<stop offset="0.2601" stop-color="#00BEFF"/>
<stop offset="0.5122" stop-color="#00D2FF"/>
<stop offset="0.7604" stop-color="#00DFFF"/>
<stop offset="1" stop-color="#00E3FF"/>
</linearGradient>
<linearGradient id="paint1_linear_195_1361" x1="30.0443" y1="16.9994" x2="8.55834" y2="16.9994" gradientUnits="userSpaceOnUse">
<stop stop-color="#FFE000"/>
<stop offset="0.4087" stop-color="#FFBD00"/>
<stop offset="0.7754" stop-color="#FFA500"/>
<stop offset="1" stop-color="#FF9C00"/>
</linearGradient>
<linearGradient id="paint2_linear_195_1361" x1="22.0452" y1="15.049" x2="2.71923" y2="-5.14023" gradientUnits="userSpaceOnUse">
<stop stop-color="#FF3A44"/>
<stop offset="1" stop-color="#C31162"/>
</linearGradient>
<linearGradient id="paint3_linear_195_1361" x1="6.47946" y1="33.8509" x2="15.1094" y2="24.8355" gradientUnits="userSpaceOnUse">
<stop stop-color="#32A071"/>
<stop offset="0.0685" stop-color="#2DA771"/>
<stop offset="0.4762" stop-color="#15CF74"/>
<stop offset="0.8009" stop-color="#06E775"/>
<stop offset="1" stop-color="#00F076"/>
</linearGradient>
</defs>
</svg>
