<svg width="17" height="17" viewBox="0 0 17 17" fill="none" xmlns="http://www.w3.org/2000/svg">
<g clip-path="url(#clip0_173_3837)">
<path d="M15.5254 0.310303H1.43556C0.760612 0.310303 0.214844 0.843153 0.214844 1.50195V15.6499C0.214844 16.3087 0.760612 16.8448 1.43556 16.8448H15.5254C16.2004 16.8448 16.7494 16.3087 16.7494 15.6532V1.50195C16.7494 0.843153 16.2004 0.310303 15.5254 0.310303ZM5.1203 14.4002H2.66596V6.50751H5.1203V14.4002ZM3.89313 5.43213C3.10515 5.43213 2.46896 4.79593 2.46896 4.01119C2.46896 3.22645 3.10515 2.59026 3.89313 2.59026C4.67787 2.59026 5.31406 3.22645 5.31406 4.01119C5.31406 4.7927 4.67787 5.43213 3.89313 5.43213ZM14.3047 14.4002H11.8536V10.5636C11.8536 9.64972 11.8374 8.47099 10.578 8.47099C9.30236 8.47099 9.1086 9.46887 9.1086 10.499V14.4002H6.66072V6.50751H9.01172V7.58613H9.04401C9.37018 6.96609 10.1711 6.31052 11.3627 6.31052C13.8461 6.31052 14.3047 7.9446 14.3047 10.0695V14.4002Z" fill="white"/>
</g>
<defs>
<clipPath id="clip0_173_3837">
<rect width="16.5345" height="16.5345" fill="white" transform="translate(0.214844 0.310303)"/>
</clipPath>
</defs>
</svg>
