<svg width="17" height="17" viewBox="0 0 17 17" fill="none" xmlns="http://www.w3.org/2000/svg">
<g clip-path="url(#clip0_173_3834)">
<path d="M5.41643 15.3447C11.6543 15.3447 15.0672 10.1754 15.0672 5.69397C15.0672 5.54864 15.0639 5.40009 15.0575 5.25477C15.7214 4.77465 16.2943 4.17995 16.7494 3.49862C16.131 3.77372 15.4746 3.95338 14.8023 4.03147C15.5101 3.60721 16.0401 2.9407 16.294 2.15552C15.6281 2.55014 14.9 2.8285 14.1406 2.97869C13.629 2.43508 12.9526 2.07515 12.2159 1.95454C11.4792 1.83393 10.7233 1.95937 10.0651 2.31144C9.40685 2.66352 8.88292 3.22264 8.57431 3.90235C8.2657 4.58206 8.18959 5.34451 8.35777 6.07181C7.00949 6.00415 5.69048 5.6539 4.48625 5.04377C3.28201 4.43365 2.21944 3.57726 1.36742 2.53013C0.93437 3.27675 0.801858 4.16024 0.996809 5.00105C1.19176 5.84187 1.69955 6.5769 2.41697 7.05677C1.87837 7.03967 1.35157 6.89466 0.880099 6.63372V6.6757C0.879617 7.45923 1.15049 8.21874 1.64667 8.82513C2.14285 9.43152 2.83372 9.84737 3.60183 10.002C3.10291 10.1385 2.57927 10.1584 2.07142 10.0601C2.28817 10.7339 2.70988 11.3233 3.2777 11.7459C3.84552 12.1685 4.53112 12.4034 5.23882 12.4176C4.03736 13.3613 2.55322 13.8732 1.02542 13.8708C0.75448 13.8704 0.483804 13.8538 0.214844 13.8211C1.76692 14.8168 3.5724 15.3457 5.41643 15.3447Z" fill="white"/>
</g>
<defs>
<clipPath id="clip0_173_3834">
<rect width="16.5345" height="16.5345" fill="white" transform="translate(0.214844 0.360352)"/>
</clipPath>
</defs>
</svg>
